<?xml version="1.0" encoding="UTF-8" standalone="no"?>
<!DOCTYPE svg PUBLIC "-//W3C//DTD SVG 1.1//EN"
 "http://www.w3.org/Graphics/SVG/1.1/DTD/svg11.dtd">
<!-- Generated by graphviz version 2.43.0 (0)
 -->
<!-- Title: my_lib/include/my_lib/my_lib.hpp Pages: 1 -->
<svg width="646pt" height="151pt"
 viewBox="0.00 0.00 646.00 151.00" xmlns="http://www.w3.org/2000/svg" xmlns:xlink="http://www.w3.org/1999/xlink">
<g id="graph0" class="graph" transform="scale(1 1) rotate(0) translate(4 147)">
<title>my_lib/include/my_lib/my_lib.hpp</title>
<!-- Node1 -->
<g id="node1" class="node">
<title>Node1</title>
<g id="a_node1"><a xlink:title="A simple C++ header file containing two classes with a bidirectional aggregation relationship....">
<polygon fill="#bfbfbf" stroke="black" points="246.5,-112.5 246.5,-142.5 370.5,-142.5 370.5,-112.5 246.5,-112.5"/>
<text text-anchor="start" x="254.5" y="-130.5" font-family="Helvetica,sans-Serif" font-size="10.00">my_lib/include/my_lib</text>
<text text-anchor="middle" x="308.5" y="-119.5" font-family="Helvetica,sans-Serif" font-size="10.00">/my_lib.hpp</text>
</a>
</g>
</g>
<!-- Node2 -->
<g id="node2" class="node">
<title>Node2</title>
<g id="a_node2"><a xlink:title=" ">
<polygon fill="none" stroke="#bfbfbf" points="362.5,-0.5 362.5,-19.5 422.5,-19.5 422.5,-0.5 362.5,-0.5"/>
<text text-anchor="middle" x="392.5" y="-7.5" font-family="Helvetica,sans-Serif" font-size="10.00">iostream</text>
</a>
</g>
</g>
<!-- Node1&#45;&gt;Node2 -->
<g id="edge1" class="edge">
<title>Node1&#45;&gt;Node2</title>
<path fill="none" stroke="midnightblue" d="M332.82,-112.46C346.26,-103.57 362.26,-90.95 372.5,-76 381.99,-62.15 387.11,-43.63 389.78,-29.91"/>
<polygon fill="midnightblue" stroke="midnightblue" points="393.29,-30.15 391.5,-19.71 386.39,-28.99 393.29,-30.15"/>
</g>
<!-- Node3 -->
<g id="node3" class="node">
<title>Node3</title>
<g id="a_node3"><a xlink:title=" ">
<polygon fill="none" stroke="#bfbfbf" points="115.5,-56.5 115.5,-75.5 173.5,-75.5 173.5,-56.5 115.5,-56.5"/>
<text text-anchor="middle" x="144.5" y="-63.5" font-family="Helvetica,sans-Serif" font-size="10.00">memory</text>
</a>
</g>
</g>
<!-- Node1&#45;&gt;Node3 -->
<g id="edge2" class="edge">
<title>Node1&#45;&gt;Node3</title>
<path fill="none" stroke="midnightblue" d="M269.63,-112.4C241.75,-102.28 204.56,-88.79 177.99,-79.15"/>
<polygon fill="midnightblue" stroke="midnightblue" points="178.96,-75.78 168.36,-75.66 176.57,-82.36 178.96,-75.78"/>
</g>
<!-- Node4 -->
<g id="node4" class="node">
<title>Node4</title>
<g id="a_node4"><a xlink:title=" ">
<polygon fill="none" stroke="#bfbfbf" points="191.5,-56.5 191.5,-75.5 235.5,-75.5 235.5,-56.5 191.5,-56.5"/>
<text text-anchor="middle" x="213.5" y="-63.5" font-family="Helvetica,sans-Serif" font-size="10.00">string</text>
</a>
</g>
</g>
<!-- Node1&#45;&gt;Node4 -->
<g id="edge3" class="edge">
<title>Node1&#45;&gt;Node4</title>
<path fill="none" stroke="midnightblue" d="M285.99,-112.4C270.9,-102.95 251.11,-90.56 236.03,-81.11"/>
<polygon fill="midnightblue" stroke="midnightblue" points="237.66,-78 227.32,-75.66 233.94,-83.93 237.66,-78"/>
</g>
<!-- Node5 -->
<g id="node5" class="node">
<title>Node5</title>
<g id="a_node5"><a xlink:title=" ">
<polygon fill="none" stroke="#bfbfbf" points="254,-56.5 254,-75.5 299,-75.5 299,-56.5 254,-56.5"/>
<text text-anchor="middle" x="276.5" y="-63.5" font-family="Helvetica,sans-Serif" font-size="10.00">utility</text>
</a>
</g>
</g>
<!-- Node1&#45;&gt;Node5 -->
<g id="edge4" class="edge">
<title>Node1&#45;&gt;Node5</title>
<path fill="none" stroke="midnightblue" d="M300.92,-112.4C296.46,-104.11 290.78,-93.55 286.02,-84.71"/>
<polygon fill="midnightblue" stroke="midnightblue" points="288.98,-82.81 281.16,-75.66 282.81,-86.12 288.98,-82.81"/>
</g>
<!-- Node6 -->
<g id="node6" class="node">
<title>Node6</title>
<g id="a_node6"><a xlink:title=" ">
<polygon fill="none" stroke="#bfbfbf" points="317,-56.5 317,-75.5 364,-75.5 364,-56.5 317,-56.5"/>
<text text-anchor="middle" x="340.5" y="-63.5" font-family="Helvetica,sans-Serif" font-size="10.00">vector</text>
</a>
</g>
</g>
<!-- Node1&#45;&gt;Node6 -->
<g id="edge5" class="edge">
<title>Node1&#45;&gt;Node6</title>
<path fill="none" stroke="midnightblue" d="M316.08,-112.4C320.54,-104.11 326.22,-93.55 330.98,-84.71"/>
<polygon fill="midnightblue" stroke="midnightblue" points="334.19,-86.12 335.84,-75.66 328.02,-82.81 334.19,-86.12"/>
</g>
<!-- Node7 -->
<g id="node7" class="node">
<title>Node7</title>
<g id="a_node7"><a xlink:href="solver_8hpp.html" target="_top" xlink:title="Example of a class that solves a linear system of equations using Eigen. Created with ChatGPT&#45;4.">
<polygon fill="none" stroke="black" points="0,-56.5 0,-75.5 97,-75.5 97,-56.5 0,-56.5"/>
<text text-anchor="middle" x="48.5" y="-63.5" font-family="Helvetica,sans-Serif" font-size="10.00">./core/solver.hpp</text>
</a>
</g>
</g>
<!-- Node1&#45;&gt;Node7 -->
<g id="edge6" class="edge">
<title>Node1&#45;&gt;Node7</title>
<path fill="none" stroke="midnightblue" d="M247.21,-112.47C200.79,-101.85 137.96,-87.47 95.48,-77.75"/>
<polygon fill="midnightblue" stroke="midnightblue" points="96.2,-74.33 85.67,-75.51 94.64,-81.15 96.2,-74.33"/>
</g>
<!-- Node9 -->
<g id="node9" class="node">
<title>Node9</title>
<g id="a_node9"><a xlink:href="package__info_8hpp_source.html" target="_top" xlink:title=" ">
<polygon fill="none" stroke="black" points="420.5,-56.5 420.5,-75.5 552.5,-75.5 552.5,-56.5 420.5,-56.5"/>
<text text-anchor="middle" x="486.5" y="-63.5" font-family="Helvetica,sans-Serif" font-size="10.00">./utils/package_info.hpp</text>
</a>
</g>
</g>
<!-- Node1&#45;&gt;Node9 -->
<g id="edge9" class="edge">
<title>Node1&#45;&gt;Node9</title>
<path fill="none" stroke="midnightblue" d="M350.68,-112.4C381.31,-102.16 422.27,-88.47 451.17,-78.81"/>
<polygon fill="midnightblue" stroke="midnightblue" points="452.48,-82.06 460.86,-75.57 450.27,-75.42 452.48,-82.06"/>
</g>
<!-- Node11 -->
<g id="node11" class="node">
<title>Node11</title>
<g id="a_node11"><a xlink:title=" ">
<polygon fill="none" stroke="#bfbfbf" points="571,-56.5 571,-75.5 638,-75.5 638,-56.5 571,-56.5"/>
<text text-anchor="middle" x="604.5" y="-63.5" font-family="Helvetica,sans-Serif" font-size="10.00">config.hpp</text>
</a>
</g>
</g>
<!-- Node1&#45;&gt;Node11 -->
<g id="edge12" class="edge">
<title>Node1&#45;&gt;Node11</title>
<path fill="none" stroke="midnightblue" d="M370.66,-114.26C419.59,-104.59 489.79,-90.62 560.7,-76.15"/>
<polygon fill="midnightblue" stroke="midnightblue" points="561.61,-79.54 570.71,-74.1 560.21,-72.68 561.61,-79.54"/>
</g>
<!-- Node7&#45;&gt;Node2 -->
<g id="edge8" class="edge">
<title>Node7&#45;&gt;Node2</title>
<path fill="none" stroke="midnightblue" d="M97.06,-57.38C165.48,-46.64 288.98,-27.25 352.45,-17.29"/>
<polygon fill="midnightblue" stroke="midnightblue" points="353.14,-20.72 362.47,-15.71 352.05,-13.81 353.14,-20.72"/>
</g>
<!-- Node8 -->
<g id="node8" class="node">
<title>Node8</title>
<g id="a_node8"><a xlink:title=" ">
<polygon fill="none" stroke="#bfbfbf" points="10,-0.5 10,-19.5 87,-19.5 87,-0.5 10,-0.5"/>
<text text-anchor="middle" x="48.5" y="-7.5" font-family="Helvetica,sans-Serif" font-size="10.00">Eigen/Dense</text>
</a>
</g>
</g>
<!-- Node7&#45;&gt;Node8 -->
<g id="edge7" class="edge">
<title>Node7&#45;&gt;Node8</title>
<path fill="none" stroke="midnightblue" d="M48.5,-56.08C48.5,-49.01 48.5,-38.86 48.5,-29.99"/>
<polygon fill="midnightblue" stroke="midnightblue" points="52,-29.75 48.5,-19.75 45,-29.75 52,-29.75"/>
</g>
<!-- Node9&#45;&gt;Node2 -->
<g id="edge10" class="edge">
<title>Node9&#45;&gt;Node2</title>
<path fill="none" stroke="midnightblue" d="M471.4,-56.32C456.6,-47.82 433.81,-34.73 416.52,-24.8"/>
<polygon fill="midnightblue" stroke="midnightblue" points="417.98,-21.6 407.57,-19.65 414.49,-27.67 417.98,-21.6"/>
</g>
<!-- Node10 -->
<g id="node10" class="node">
<title>Node10</title>
<g id="a_node10"><a xlink:title=" ">
<polygon fill="none" stroke="#bfbfbf" points="448.5,-0.5 448.5,-19.5 524.5,-19.5 524.5,-0.5 448.5,-0.5"/>
<text text-anchor="middle" x="486.5" y="-7.5" font-family="Helvetica,sans-Serif" font-size="10.00">../config.hpp</text>
</a>
</g>
</g>
<!-- Node9&#45;&gt;Node10 -->
<g id="edge11" class="edge">
<title>Node9&#45;&gt;Node10</title>
<path fill="none" stroke="midnightblue" d="M486.5,-56.08C486.5,-49.01 486.5,-38.86 486.5,-29.99"/>
<polygon fill="midnightblue" stroke="midnightblue" points="490,-29.75 486.5,-19.75 483,-29.75 490,-29.75"/>
</g>
</g>
</svg>
